<svg width="600" height="600" viewBox="0 0 600 600" fill="none" xmlns="http://www.w3.org/2000/svg">
<path d="M582.5 36.2H388.4V221.5H582.5V36.2Z" fill="white" stroke="#59051C" stroke-width="0.75" stroke-miterlimit="10"/>
<path d="M582.5 125.5H485.4V36.2H481.6V125.5H388.4V131.2H481.6V221.8H485.4V131.2H582.5V125.5Z" fill="white" stroke="#59051C" stroke-width="0.75" stroke-miterlimit="10"/>
<path d="M237 275.5H227.1V448.3H237V275.5Z" fill="#59051C"/>
<path d="M383.4 269.5H373.5V442.3H383.4V269.5Z" fill="#59051C"/>
<path d="M32.9 331H23V548.3H32.9V331Z" fill="#59051C"/>
<path d="M12 334.2C74.3 337.6 136.6 341.1 198.8 344.5L393.6 271C393.8 268.7 394 266.4 394.2 264.2C341.5 263.2 288.9 262.1 236.2 261.1C161.4 283 86.5 304.9 11.7 326.9C11.8 329.3 11.9 331.8 12 334.2Z" fill="white" stroke="#59051C" stroke-width="0.75" stroke-miterlimit="10"/>
<path d="M13 326.7L198.8 337.4L393.6 263.9L236.2 253.9L13 326.7Z" fill="white" stroke="#59051C" stroke-width="0.75" stroke-miterlimit="10"/>
<path d="M102.4 307.1L210.8 315.1L286.9 281.2L199.8 271.7L102.4 307.1Z" fill="white" stroke="#59051C" stroke-width="0.75" stroke-miterlimit="10"/>
<path d="M85.6 214.9C85.6 216.6 102.4 307 102.4 307L199.8 271.6L186.6 193.5L85.6 214.9Z" fill="white" stroke="#59051C" stroke-width="0.75" stroke-miterlimit="10"/>
<path d="M91.1 218.3L106.5 301.5L195.1 268.7L184 196.8L91.1 218.3Z" fill="white" stroke="#59051C" stroke-width="0.75" stroke-miterlimit="10"/>
<path d="M114.6 305C115.3 304.8 190.2 311 190.2 311L260 280.6L201 273.6L114.6 305Z" fill="white" stroke="#59051C" stroke-width="0.75" stroke-miterlimit="10"/>
<path d="M123.3 301.5L199.8 306.8" stroke="#59051C" stroke-width="0.75" stroke-miterlimit="10"/>
<path d="M137.2 296.8L209.8 302.5" stroke="#59051C" stroke-width="0.75" stroke-miterlimit="10"/>
<path d="M179.3 310.1L250.7 279" stroke="#59051C" stroke-width="0.75" stroke-miterlimit="10"/>
<path d="M181.8 280.6L243.6 287.8" stroke="#59051C" stroke-width="0.75" stroke-miterlimit="10"/>
<path d="M192.3 276.8L253 283.7" stroke="#59051C" stroke-width="0.75" stroke-miterlimit="10"/>
<path d="M127.6 305.9L209.3 274.7" stroke="#59051C" stroke-width="0.75" stroke-miterlimit="10"/>
<path d="M143.1 307.2L218.9 275.5" stroke="#59051C" stroke-width="0.75" stroke-miterlimit="10"/>
<path d="M161.6 308.7L230.3 277.1" stroke="#59051C" stroke-width="0.75" stroke-miterlimit="10"/>
<path d="M153.4 290.9L211.9 295.9" stroke="#59051C" stroke-width="0.75" stroke-miterlimit="10"/>
<path d="M169.8 285L225.7 289.9" stroke="#59051C" stroke-width="0.75" stroke-miterlimit="10"/>
<path d="M129.9 218.4C138.1 216.6 146.3 214.5 154.4 212.1C156.2 211.5 155.5 208.6 153.6 209.2C145.5 211.6 137.4 213.7 129.1 215.5C127.2 215.9 128 218.8 129.9 218.4Z" fill="#D90E32" fill-opacity="0.6"/>
<path d="M102.6 238.4C123 233.6 143.2 227.6 162.9 220.6C164.3 220.1 163.7 217.9 162.3 218.4C142.5 225.5 122.4 231.4 102 236.2C100.6 236.6 101.2 238.8 102.6 238.4Z" fill="#59051C"/>
<path d="M104.9 248.7C129.3 241 153.9 234.1 178.7 227.8C180.1 227.4 179.5 225.3 178.1 225.6C153.3 231.8 128.7 238.8 104.3 246.5C102.9 246.9 103.5 249.1 104.9 248.7Z" fill="#59051C"/>
<path d="M143.1 246.8C155.8 243 168.5 239.1 181.2 235.1C182.6 234.7 182 232.5 180.6 232.9C167.9 236.8 155.2 240.7 142.5 244.6C141.1 245 141.7 247.2 143.1 246.8Z" fill="#59051C"/>
<path d="M109.3 265.9C125.8 260.8 142.3 255.7 158.8 250.7C160.2 250.3 159.6 248.1 158.2 248.5C141.7 253.6 125.2 258.7 108.7 263.7C107.3 264.1 107.9 266.3 109.3 265.9Z" fill="#59051C"/>
<path d="M132.3 270.6C147.5 265.1 162.9 260.2 178.4 256C179.8 255.6 179.2 253.4 177.8 253.8C162.2 258.1 146.9 263 131.7 268.4C130.3 268.9 130.9 271.1 132.3 270.6Z" fill="#59051C"/>
<path d="M69.1 322.7H50C47.7 322.7 45.7 320.9 45.4 318.6L40.7 275.5C40.4 272.8 42.5 270.4 45.3 270.4H74.4C77.2 270.4 79.3 272.8 78.9 275.5L73.5 318.6C73.3 321 71.4 322.7 69.1 322.7Z" fill="#59051C"/>
<path d="M59.9 278C70.5039 278 79.1 275.761 79.1 273C79.1 270.239 70.5039 268 59.9 268C49.2961 268 40.7 270.239 40.7 273C40.7 275.761 49.2961 278 59.9 278Z" fill="white" stroke="#59051C" stroke-width="0.75" stroke-miterlimit="10"/>
<path d="M55.6 205C49.5 214.7 49.7 225.2 53.2 235.8C55.2 241.8 57.9 247.7 58.3 254.1C58.7 260.6 57.3 267.4 56.5 273.8C56.3 275.7 59.3 275.7 59.5 273.8C60.3 267.9 61.5 261.9 61.4 255.9C61.3 250.8 60 245.9 58.3 241.1C54.2 229.1 50.9 218.1 58.2 206.5C59.2 204.9 56.6 203.4 55.6 205Z" fill="#E86E84"/>
<path d="M39.1 220.7C38.4 228.2 43.7 232.8 48.3 237.9C54.5 244.7 57.9 253.2 58.4 262.4C58.5 264.3 61.5 264.3 61.4 262.4C61 255.4 59.1 248.6 55.5 242.6C51.3 235.6 41.3 229.7 42.1 220.7C42.3 218.8 39.3 218.8 39.1 220.7Z" fill="#E86E84"/>
<path d="M54.5 227C57.6 222.8 61.2 218.7 63.6 214.1C65.9 209.5 67.2 204.6 69.8 200.1C70.8 198.4 68.2 196.9 67.2 198.6C64.6 203 63.3 208 61 212.6C58.6 217.3 55 221.4 51.9 225.5C50.7 227 53.3 228.5 54.5 227Z" fill="#E86E84"/>
<path d="M43.1 239.5C45.6 240.3 51.1 241.6 51.9 239.9C53 237.7 46.2 230 37.8 229.1C35.1 228.8 32.7 229.3 31 229.8C32.5 232.1 36.3 237.3 43.1 239.5Z" fill="#E86E84"/>
<path d="M41 225.6C40 224.3 36.9 219.8 37.3 213.7C38 203.6 47.7 198.7 48.1 198.5C48.8 201 50.5 208.2 47.4 216.1C45.6 220.7 42.9 223.9 41 225.6Z" fill="#E86E84"/>
<path d="M55.5 208.2C55 206.3 54.4 202.7 55.4 198.5C57.2 191.4 62.4 187.7 63.8 186.7C64.3 188.4 65.3 192.4 64 197.1C62.2 204 56.7 207.4 55.5 208.2Z" fill="#E86E84"/>
<path d="M57.9 244.8C57.6 243.3 56.8 238 59.7 232.5C63.1 226.1 69 224 70.3 223.6C70.5 225.5 70.4 227.8 69.8 230.4C67.7 239.2 59.9 243.8 57.9 244.8Z" fill="#E86E84"/>
<path d="M56 222.5C58.1 219.1 62 213.8 68.4 209.4C72.4 206.6 76.2 204.9 79.2 203.9C78.9 206.1 78 211 74.1 215.4C67.3 223 57.3 222.5 56 222.5Z" fill="#E86E84"/>
<path d="M230.3 208.2C230.3 227.6 230.3 247.1 230.3 266.5C246.1 268.2 262 269.9 277.8 271.7C288.2 267.6 298.5 263.6 308.9 259.5C309.4 240.9 309.8 222.4 310.3 203.8C297 202.3 283.6 200.8 270.3 199.4C257 202.3 243.7 205.2 230.3 208.2Z" fill="white"/>
<path d="M230.3 208.2V266.5L277.8 271.7L309 259.5L310.3 203.8L270.3 199.4L230.3 208.2Z" fill="white" stroke="#59051C" stroke-width="0.75" stroke-miterlimit="10"/>
<path d="M230.3 208.2L275.6 213.5" stroke="#59051C" stroke-width="0.75" stroke-miterlimit="10"/>
<path d="M308.9 204.9L275.6 213.5" stroke="#59051C" stroke-width="0.75" stroke-miterlimit="10"/>
<path d="M276.9 270.5L277.1 213.1" stroke="#59051C" stroke-width="0.75" stroke-miterlimit="10"/>
<path d="M255.5 207.7L267 209.2" stroke="#59051C" stroke-width="0.75" stroke-miterlimit="10"/>
<path d="M258.7 204.7L282.5 207.7" stroke="#59051C" stroke-width="0.75" stroke-miterlimit="10"/>
<path d="M272.9 202.9L292.3 204.5" stroke="#59051C" stroke-width="0.75" stroke-miterlimit="10"/>
<path d="M230.3 212.5L277 217.7" stroke="#59051C" stroke-width="0.75" stroke-miterlimit="10"/>
<path d="M230.3 219.3L261.2 222.8" stroke="#59051C" stroke-width="0.75" stroke-miterlimit="10"/>
<path d="M236.1 226.7L277 230.8" stroke="#59051C" stroke-width="0.75" stroke-miterlimit="10"/>
<path d="M230.3 231.9L277 235.5" stroke="#59051C" stroke-width="0.75" stroke-miterlimit="10"/>
<path d="M230.3 238.5L272.9 241.8" stroke="#59051C" stroke-width="0.75" stroke-miterlimit="10"/>
<path d="M230.3 245.5L272.9 248.1" stroke="#59051C" stroke-width="0.75" stroke-miterlimit="10"/>
<path d="M240.4 251.4L276.4 253.9" stroke="#59051C" stroke-width="0.75" stroke-miterlimit="10"/>
<path d="M230.3 256L275.4 259.5" stroke="#59051C" stroke-width="0.75" stroke-miterlimit="10"/>
<path d="M237 261.6L277 265.4" stroke="#59051C" stroke-width="0.75" stroke-miterlimit="10"/>
<path d="M277.8 221.1L310.3 211.6" stroke="#59051C" stroke-width="0.75" stroke-miterlimit="10"/>
<path d="M282.6 214.6L310.2 207.7" stroke="#59051C" stroke-width="0.75" stroke-miterlimit="10"/>
<path d="M277.8 233.1L309.9 222.8" stroke="#59051C" stroke-width="0.75" stroke-miterlimit="10"/>
<path d="M285.6 224.3L304 218.8" stroke="#59051C" stroke-width="0.75" stroke-miterlimit="10"/>
<path d="M277 243.6L309.6 232.4" stroke="#59051C" stroke-width="0.75" stroke-miterlimit="10"/>
<path d="M279.4 238L292.3 233.7" stroke="#59051C" stroke-width="0.75" stroke-miterlimit="10"/>
<path d="M276.9 256L302.4 246.8" stroke="#59051C" stroke-width="0.75" stroke-miterlimit="10"/>
<path d="M282.6 248.2L309.4 240.2" stroke="#59051C" stroke-width="0.75" stroke-miterlimit="10"/>
<path d="M277.6 265.4L309.1 253.9" stroke="#59051C" stroke-width="0.75" stroke-miterlimit="10"/>
<path d="M352.7 530.6V470.2H365.3L374.5 442.4H316.2L323.9 470.2H340.6V530.7C321.4 532 306.9 538.5 306.9 546.4C306.9 555.2 325.1 562.3 347.7 562.3C370.3 562.3 388.5 555.2 388.5 546.4C388.4 538.2 372.8 531.5 352.7 530.6Z" fill="white" stroke="#59051C" stroke-width="0.75" stroke-miterlimit="10"/>
<path d="M248 424.9C248.2 429 248.4 433.2 248.6 437.3C248.9 443.3 253.7 448.1 259.8 448.3C291 449.4 322.2 450.5 353.5 451.5C355.5 451.6 357.4 451.1 359.1 450.3C385.5 436.9 412 423.5 438.4 410.1C444.4 407.1 446.6 399.5 443.1 393.8C440.9 390.2 438.8 386.7 436.6 383.1C434.1 378.9 429.1 376.8 424.3 377.8C368.6 389.5 312.9 401.3 257.2 413C251.6 414.2 247.7 419.2 248 424.9Z" fill="#D90E32" stroke="#D90E32" stroke-miterlimit="10"/>
<path d="M186 59.9999C185.5 67.4999 185.1 75.2999 184.9 83.2999C184.5 101 185 117.6 186.1 133C190.1 133.9 194 134.7 198 135.6C201.6 133.5 205.2 131.5 208.7 129.4C209.3 131.2 209.8 133 210.4 134.7C213.8 134.8 218.5 134.8 224 133.9C226.5 133.5 233.7 132.4 244.1 128.1C251.2 125.2 262 119.8 273.9 110.3C272.5 109.1 270.6 107.5 268.7 105.4C267.3 103.9 263.5 99.5999 260.3 92.7999C257.4 86.5999 256.5 81.6999 255 72.9999C254.1 67.6999 253.1 60.4999 252.7 51.8999C248.6 52.4999 244.3 52.9999 240.1 53.4999C225 55.1999 210.5 56.0999 196.8 56.2999C193.1 57.5999 189.5 58.7999 186 59.9999Z" fill="white"/>
<path d="M196.7 56.4999C196.5 60.2999 196.4 64.0999 196.2 67.8999C215.2 66.1999 234.2 64.4999 253.3 62.7999C253.1 59.1999 252.9 55.6999 252.7 52.0999C234 53.4999 215.3 54.9999 196.7 56.4999Z" fill="#D90E32"/>
<path d="M185.6 59.9999C183.9 84.2999 183.9 108.7 185.6 133.1C185.6 133.6 186.4 133.6 186.4 133.1C184.7 108.8 184.7 84.3999 186.4 59.9999C186.4 59.4999 185.6 59.4999 185.6 59.9999Z" fill="#59051C"/>
<path d="M187.6 59.4999C189.7 59.0999 191.8 58.5999 193.8 57.7999C194.3 57.5999 194.1 56.8999 193.6 57.0999C191.6 57.7999 189.5 58.3999 187.4 58.7999C186.9 58.8999 187.1 59.5999 187.6 59.4999Z" fill="#59051C"/>
<path d="M196.7 56.7999C214.4 55.6999 232.1 54.4999 249.9 53.3999C250.4 53.3999 250.4 52.5999 249.9 52.5999C232.2 53.6999 214.5 54.8999 196.7 55.9999C196.2 56.0999 196.2 56.8999 196.7 56.7999Z" fill="#59051C"/>
<path d="M195.4 59.2C196 84.5 200.8 109.5 209.6 133.2C209.8 133.6 210.5 133.5 210.3 133C201.5 109.3 196.7 84.4 196.1 59.2C196.1 58.7 195.4 58.7 195.4 59.2Z" fill="#59051C"/>
<path d="M252.1 59.0999C255.5 76.2999 256.3 96.2999 271 108.2C271.4 108.5 271.9 108 271.5 107.7C256.8 95.7999 256.1 75.9999 252.8 58.8999C252.8 58.4999 252 58.6999 252.1 59.0999Z" fill="#59051C"/>
<path d="M211.9 135.1C234.6 135.8 254.6 124.6 272.6 112C273 111.7 272.6 111.1 272.2 111.4C254.2 123.9 234.4 135.1 211.9 134.4C211.4 134.3 211.4 135.1 211.9 135.1Z" fill="#59051C"/>
<path d="M186.2 133.4C190 134.8 193.9 135.6 197.9 136C198.4 136 198.4 135.3 197.9 135.2C193.9 134.8 190.1 133.9 186.4 132.6C185.9 132.6 185.7 133.3 186.2 133.4Z" fill="#59051C"/>
<path d="M195.8 67.8999C195.2 89.7999 195.9 111.7 197.9 133.5C197.9 134 198.7 134 198.7 133.5C196.7 111.7 196 89.7999 196.6 67.8999C196.5 67.3999 195.8 67.3999 195.8 67.8999Z" fill="#59051C"/>
<path d="M199 136.1C201.6 134.6 204.2 133 206.9 131.5C207.3 131.3 206.9 130.6 206.5 130.9C203.9 132.4 201.3 134 198.6 135.5C198.2 135.7 198.6 136.3 199 136.1Z" fill="#59051C"/>
<path d="M190 67.0999C189 86.8999 189.2 106.7 190.5 126.5C190.5 127 191.3 127 191.3 126.5C190 106.7 189.8 86.8999 190.8 67.0999C190.8 66.5999 190 66.5999 190 67.0999Z" fill="#59051C"/>
<path d="M193 98.2C192.5 109.4 192.9 120.7 194.2 131.8C194.3 132.3 195 132.3 195 131.8C193.7 120.6 193.4 109.4 193.8 98.2C193.8 97.7 193.1 97.7 193 98.2Z" fill="#59051C"/>
<path d="M211.7 72.5998C216.2 90.6999 223.2 108 232.7 124.1C232.9 124.5 233.6 124.1 233.3 123.7C223.8 107.7 216.8 90.4999 212.4 72.3999C212.3 71.8999 211.6 72.0998 211.7 72.5998Z" fill="#59051C"/>
<path d="M229.8 68.9999C236.1 83.0999 244 96.1999 253.4 108.4C253.7 108.8 254.2 108.2 253.9 107.9C244.5 95.7999 236.7 82.6999 230.4 68.6999C230.2 68.1999 229.6 68.5999 229.8 68.9999Z" fill="#59051C"/>
<path d="M204.7 93.7999C220.6 90.6999 235.8 85.0999 249.9 77.1999C250.3 76.9999 249.9 76.2999 249.5 76.5999C235.4 84.4999 220.3 89.9999 204.4 93.0999C204 93.1999 204.2 93.8999 204.7 93.7999Z" fill="#59051C"/>
<path d="M206.8 113C215.6 109.4 224.5 105.9 233.3 102.3C240.4 99.3999 247.6 96.5999 253.9 92.0999C254.3 91.7999 253.9 91.1999 253.5 91.4999C246.7 96.3999 238.9 99.2999 231.3 102.4C223.1 105.7 214.9 109.1 206.6 112.4C206.2 112.5 206.4 113.2 206.8 113Z" fill="#59051C"/>
<path d="M201.9 81.0998C205.3 83.0998 208.9 84.4998 212.8 85.3998C213.3 85.4998 213.5 84.7998 213 84.6998C209.2 83.7998 205.7 82.3998 202.3 80.3998C201.8 80.1998 201.4 80.7998 201.9 81.0998Z" fill="#59051C"/>
<path d="M210.1 77.1999C207.6 80.0999 205.5 83.2999 203.8 86.7999C203.6 87.1999 204.2 87.5999 204.4 87.1999C206.1 83.7999 208.1 80.5999 210.6 77.7999C211 77.3999 210.4 76.7999 210.1 77.1999Z" fill="#59051C"/>
<path d="M220.7 76.0999C223.6 77.2999 226.4 78.4999 229.3 79.6999C229.7 79.8999 229.9 79.1999 229.5 78.9999C226.6 77.7999 223.8 76.5999 220.9 75.3999C220.4 75.1999 220.2 75.8999 220.7 76.0999Z" fill="#59051C"/>
<path d="M227.5 72.1999C224.9 74.8999 222.8 77.9999 221.3 81.3999C221.1 81.7999 221.8 82.1999 221.9 81.7999C223.4 78.3999 225.4 75.3999 228 72.6999C228.4 72.3999 227.9 71.8999 227.5 72.1999Z" fill="#59051C"/>
<path d="M239.8 71.5999C242 72.3999 244.2 73.1999 246.5 73.9999C247 74.1999 247.1 73.3999 246.7 73.2999C244.5 72.4999 242.3 71.6999 240 70.8999C239.5 70.6999 239.3 71.3999 239.8 71.5999Z" fill="#59051C"/>
<path d="M245.3 67.0999C241.9 71.0999 238.8 75.3999 235.8 79.7999C235.5 80.1999 236.2 80.5999 236.4 80.1999C239.3 75.8999 242.4 71.6999 245.7 67.6999C246.2 67.2999 245.6 66.7999 245.3 67.0999Z" fill="#59051C"/>
<path d="M206.1 99.3C209.7 100.2 213 101.6 216.2 103.4C216.6 103.6 217 103 216.6 102.8C213.3 101 209.9 99.6 206.3 98.6C205.9 98.4 205.7 99.2 206.1 99.3Z" fill="#59051C"/>
<path d="M215 95.3999C212.2 98.2999 210.1 101.8 208.7 105.6C208.5 106.1 209.3 106.2 209.4 105.8C210.7 102.1 212.8 98.7999 215.5 95.9999C215.9 95.5999 215.4 95.0999 215 95.3999Z" fill="#59051C"/>
<path d="M250.7 108.4C246.3 103.8 253 92.8999 259 96.0999C264.8 99.1999 261.6 110.9 255 110.7C247.2 110.5 247.9 98.5999 254.1 96.4999C257.7 95.1999 261.5 100.5 261 103.7C260.4 107.4 256.9 108.3 253.8 107.3C253.3 107.1 253.1 107.9 253.6 108C255.9 108.8 258.8 108.7 260.6 106.7C262.5 104.5 261.7 101.2 260.4 98.8999C256.7 92.5999 249.6 96.3999 248.7 102.5C247.8 108.2 253.8 114.4 259.1 109.9C263.5 106.2 265.1 96.0999 257.8 94.6999C251.3 93.3999 245.8 104.3 250.2 109C250.5 109.3 251 108.7 250.7 108.4Z" fill="#D90E32"/>
<path d="M266.2 502.4C266.2 502.4 262.4 502.6 258.5 503.5C247.6 506.1 229.3 516.5 230.8 520.5C231.6 522.8 238.4 521.3 267.3 520.3C273.8 520.1 279.1 520 282.7 519.9C281.3 514.3 280 508.8 278.6 503.2C275.6 502.7 271.3 502.1 266.2 502.4Z" fill="#D90E32" stroke="#D90E32" stroke-miterlimit="10"/>
<path d="M263.1 504.7C261.9 503.9 260.8 503 259.8 501.9C259.3 501.3 257.1 498.6 257.4 497.7C257.9 497.2 258.5 496.7 259 496.2C259.3 496.6 259.6 497 259.9 497.3C260.3 497.8 260.6 498.4 260.9 499C261.6 500.5 262.1 502.2 262.6 503.8C262.7 504 262.9 504.1 263.1 504.1C264.4 503.6 265.7 503.5 267 504.3C267.8 504.7 269.9 506.8 268.2 507.2C267.7 507.3 265.9 506.2 265.4 506C264.5 505.6 263.6 505.2 262.6 504.8C262.2 504.6 261.8 505.3 262.2 505.4C264.3 506.3 266.9 508 269.3 508.3C269.4 508.3 269.6 508.2 269.6 508.1C271 506.1 267.5 503.3 265.9 503C265.3 502.9 264.8 503 264.2 502.9C262.8 502.8 262.9 502.2 262.4 500.9C261.8 499.2 261.1 497.6 260 496.2C258.7 494.6 256.4 494.6 256.5 497.1C256.6 500.4 260.2 503.7 262.7 505.3C263.2 505.6 263.5 504.9 263.1 504.7Z" fill="white"/>
<path d="M246.1 508.1C247.5 508.3 248.6 509.1 249.2 510.3C249.4 510.7 250.1 510.4 249.8 509.9C249.1 508.4 247.7 507.5 246 507.3C245.6 507.2 245.7 508 246.1 508.1Z" fill="white"/>
<path d="M250.6 506.1C252 506.2 253.2 507 253.8 508.2C254 508.6 254.7 508.2 254.4 507.8C253.6 506.3 252.2 505.4 250.5 505.3C250.1 505.3 250.1 506.1 250.6 506.1Z" fill="white"/>
<path d="M254.9 504.4C256.3 504.8 257.3 505.8 257.8 507.1C257.9 507.6 258.7 507.4 258.5 506.9C258 505.3 256.7 504.1 255.1 503.6C254.6 503.6 254.4 504.3 254.9 504.4Z" fill="white"/>
<path d="M244.9 519.7C255.7 518.9 266.6 518.4 277.5 518.2C278 518.2 278 517.4 277.5 517.4C266.6 517.6 255.8 518.2 244.9 518.9C244.4 519 244.4 519.7 244.9 519.7Z" fill="white"/>
<path d="M259.5 414.8C262.1 428.2 264.9 441.9 267.9 455.7C271.5 472.2 275.1 488.4 278.9 504.3C277.8 504.7 276.5 505.2 275.1 505.5C271.1 506.5 267.5 506.6 264.7 506.4C259.7 495.5 255.8 486.9 253.4 481.8C244.2 462 237.8 441 229.8 420.7C228.2 416.6 224.3 406.7 228.6 401.2C230.2 399.1 233.5 397 236.3 395.3C239.7 393.1 242.5 391.8 243.8 391.3C255.3 386.2 265.5 383.7 265.5 383.7C306.6 373.7 302.6 373.4 317.1 370.9C325.7 369.4 330.5 368.9 338.1 366.1C348.2 362.4 349.1 360 356.8 358C362.5 356.6 375.5 353.3 383.4 360.7C391.8 368.5 388.7 382.6 388.4 383.9C387.3 386 385.7 388.7 383.4 391.7C381.8 393.7 378.3 398.2 372.7 402.3C370.8 403.7 366.1 406.8 357.6 409.3C348.1 412.1 340.5 412.2 332.6 412.3C312.1 412.4 299.2 412.5 294.1 412.6C285.8 412.6 274 413.1 259.5 414.8Z" fill="white"/>
<path d="M388 383.6C382.8 393.2 374.8 401.8 364.8 406.4C353.5 411.5 339.3 411.6 327 412C304.4 412.7 281.8 411.1 259.3 414.5C258.8 414.6 259 415.3 259.5 415.2C285 411.3 310.8 414 336.5 412.3C347.1 411.6 358.9 410.8 368.3 405.4C377 400.4 383.9 392.7 388.6 384C388.9 383.6 388.3 383.2 388 383.6Z" fill="#59051C"/>
<path d="M259.5 415.5C264.7 445.3 271.1 475 278.5 504.3C278.6 504.8 279.3 504.6 279.2 504.1C271.7 474.7 265.4 445.1 260.2 415.3C260.1 414.9 259.4 415.1 259.5 415.5Z" fill="#59051C"/>
<path d="M263.9 504.3C251.5 477.3 240 449.9 229.5 422.1C229.3 421.7 228.6 421.8 228.8 422.3C239.3 450.1 250.8 477.6 263.3 504.6C263.5 505.1 264.1 504.8 263.9 504.3Z" fill="#59051C"/>
<path d="M228.6 401.4C236 394.6 245 390.7 254.4 387.5C263.4 384.5 272.4 381.6 281.5 379.1C301 373.6 321.1 371 340.6 365.7C341.1 365.6 340.9 364.8 340.4 365C319.7 370.7 298.3 373.4 277.6 379.5C260.8 384.4 241.2 388.7 228 400.9C227.7 401.2 228.3 401.7 228.6 401.4Z" fill="#59051C"/>
<path d="M264.6 506.7C268.9 508 273.4 507.2 277 504.7C277.4 504.4 277 503.8 276.6 504.1C273.1 506.6 268.9 507.3 264.7 506.1C264.4 505.9 264.2 506.6 264.6 506.7Z" fill="#59051C"/>
<path d="M222.8 516C222.8 516 219 516.2 215.1 517.1C204.2 519.7 185.9 530.1 187.4 534.1C188.2 536.4 195 534.9 223.9 533.9C230.4 533.7 235.7 533.6 239.3 533.5C237.9 527.9 236.6 522.4 235.2 516.8C232.2 516.3 227.9 515.7 222.8 516Z" fill="#D90E32" stroke="#D90E32" stroke-miterlimit="10"/>
<path d="M226.9 510.3C228.8 510.3 228.8 507.3 226.9 507.3C225 507.3 225 510.3 226.9 510.3Z" fill="white"/>
<path d="M219.8 518.3C218.6 517.5 217.5 516.6 216.5 515.5C216 514.9 213.8 512.2 214.1 511.3C214.6 510.8 215.2 510.3 215.7 509.8C216 510.2 216.3 510.6 216.6 510.9C217 511.4 217.3 512 217.6 512.6C218.3 514.1 218.8 515.8 219.3 517.4C219.4 517.6 219.6 517.7 219.8 517.7C221.1 517.2 222.4 517.1 223.7 517.9C224.5 518.3 226.6 520.4 224.9 520.8C224.4 520.9 222.6 519.8 222.1 519.6C221.2 519.2 220.3 518.8 219.3 518.4C218.9 518.2 218.5 518.9 218.9 519C221 519.9 223.6 521.6 226 521.9C226.1 521.9 226.3 521.8 226.3 521.7C227.7 519.7 224.2 516.9 222.6 516.6C222 516.5 221.5 516.6 220.9 516.5C219.5 516.4 219.6 515.8 219.1 514.5C218.5 512.8 217.8 511.2 216.7 509.8C215.4 508.2 213.1 508.2 213.2 510.7C213.3 514 216.9 517.3 219.4 518.9C219.8 519.2 220.2 518.5 219.8 518.3Z" fill="white"/>
<path d="M202.8 521.6C204.2 521.8 205.3 522.6 205.9 523.8C206.1 524.2 206.8 523.9 206.5 523.4C205.8 521.9 204.4 521 202.7 520.8C202.3 520.8 202.3 521.6 202.8 521.6Z" fill="white"/>
<path d="M207.2 519.7C208.6 519.8 209.8 520.6 210.4 521.8C210.6 522.2 211.3 521.8 211 521.4C210.2 519.9 208.8 519 207.1 518.9C206.7 518.9 206.7 519.7 207.2 519.7Z" fill="white"/>
<path d="M211.5 518C212.9 518.4 213.9 519.4 214.4 520.7C214.5 521.2 215.3 521 215.1 520.5C214.6 518.9 213.3 517.7 211.7 517.2C211.3 517.2 211.1 517.9 211.5 518Z" fill="white"/>
<path d="M201.5 533.3C212.3 532.5 223.2 532 234.1 531.8C234.6 531.8 234.6 531 234.1 531C223.2 531.2 212.4 531.8 201.5 532.5C201 532.5 201 533.3 201.5 533.3Z" fill="white"/>
<path d="M363.7 403.8C361.1 405.6 357.4 408 352.6 410.1C346.6 412.8 340.9 414.2 334.2 415.1C327.8 416 322.4 416.3 306.4 416.2C286.4 416.1 281.5 415.5 269.7 416.1C262.2 416.5 256.2 417.1 252.3 417.6C249.1 432.4 246 447.7 243.2 463.6C240 481.9 237.3 499.7 235 516.8C233.5 516.9 231.7 517 229.8 516.9C227 516.8 224.6 516.4 222.7 515.9C220.3 500.2 217 476.5 215.1 451.3C214.7 445.8 214.4 436.6 213.9 418.2C213.9 418.2 213.7 410.7 214.8 395.5C215.4 386.9 216.1 382.7 219.1 378.5C221.9 374.6 225.4 372.6 228.9 370.7C236.9 366.3 244.1 365.2 246.8 364.8C263.6 362.1 259.3 360.2 288.6 354.1C310.5 349.5 318.2 348.6 320.9 348.4C334.1 347.4 340.8 346.8 346 349.2C365.9 358.2 363.9 399.8 363.7 403.8Z" fill="white"/>
<path d="M316.2 348.8C299.6 351.3 283.1 354.7 266.9 358.8C258.6 360.9 250.4 363.3 242.2 365.8C236.1 367.7 228.7 369.3 223.4 373.2C213.5 380.6 214.2 396.2 213.8 407.1C213.1 424.3 213.9 441.5 215.4 458.7C217.1 477.9 219.7 496.9 222.4 516C222.5 516.5 223.2 516.3 223.1 515.8C217.4 475.5 211.3 434.1 215.4 393.3C216.5 382.7 219.9 374.4 230.4 370.4C239.3 367 248.6 364.4 257.8 361.9C277 356.5 296.6 352.4 316.3 349.4C316.9 349.5 316.7 348.7 316.2 348.8Z" fill="#59051C"/>
<path d="M357.1 408.6C340.6 415.8 322.6 416.2 305 415.9C287.5 415.5 270.1 415.3 252.7 417.1C252.2 417.1 252.2 417.9 252.7 417.9C271.3 416 289.8 416.5 308.5 416.7C325.2 416.9 342.1 416 357.6 409.2C357.9 409.1 357.5 408.4 357.1 408.6Z" fill="#59051C"/>
<path d="M252 419.1C244.9 451.4 239.1 484.1 234.8 516.9C234.7 517.4 235.5 517.4 235.6 516.9C239.9 484.1 245.6 451.6 252.7 419.3C252.8 418.8 252.1 418.6 252 419.1Z" fill="#59051C"/>
<path d="M223.6 515.5C226.7 517.5 230.4 517.9 233.8 516.5C234.2 516.3 234 515.6 233.6 515.8C230.4 517.1 226.9 516.8 224 514.9C223.6 514.6 223.2 515.3 223.6 515.5Z" fill="#59051C"/>
<path d="M347.6 221.8C351.9 219.9 355.5 218.5 357.9 217.6C368.4 213.7 385.8 207.4 407.3 207.7C409.3 207.7 411 207.8 411.9 207.9C413.1 209.8 414.7 212.5 416.3 215.8C418.8 221.1 420.4 226.1 421.9 233C423.5 239.9 425.4 248.6 426.1 260.6C426.1 260.6 427.1 278.4 423.7 298.3C417.1 336.3 395.3 372.6 389.6 381.9C386.9 382.5 383.5 383 379.5 383.3C376.8 383.5 371.4 383.8 364.6 383C360.2 382.5 354.1 381.8 346.9 378.9C343.3 377.5 335.7 374.4 328.3 367.1C321.6 360.5 318.1 353.5 316.3 349C318.1 346.3 320.5 342.6 323.2 337.9C327.6 330 330.4 323.4 333 317C336.1 309.6 337.6 305.9 338.7 302.1C340.9 294.6 340.9 290.6 342.2 275.5C342.3 274.4 343.2 265 345.1 246.3C346 235.9 347 227.4 347.6 221.8Z" fill="white"/>
<path d="M349.7 221.4C351.4 220.5 353.8 219.4 356.6 218.1C359.5 216.9 366.9 213.8 376.4 211.4C388.5 208.4 399.4 207.7 407.3 207.7C409 208.1 410.7 208.4 412.4 208.8C413.5 210.4 414.9 212.8 416.3 215.8C418.4 220.2 419.6 224 420.7 228.2C422.4 234.7 424.1 241.2 425.3 250.5C425.8 254.4 427.3 267.8 425.5 285.8C425.1 290.2 423.6 303.4 418.2 321.3C413.8 336 405.5 357.7 389.6 382C387.2 382.5 383.7 383.1 379.5 383.4C373.8 383.8 362.6 384.6 349.6 380C344.8 378.3 336.3 375.2 328.3 367.3C321.5 360.6 318 353.6 316.3 349.2C320.8 340.5 324.6 333 327.3 327.4C331.5 318.9 334 313.4 336.7 306.5C339.5 299.2 340.7 294.9 341.5 290.5C342.2 286.3 342.3 283.4 342.6 279C343 271.2 343.7 263.3 344.1 255.5C344.6 247.5 345.9 236.2 349.7 221.4Z" fill="white"/>
<path d="M349.9 221.7C367.8 212.7 387.3 208.1 407.3 208.1C407.8 208.1 407.8 207.3 407.3 207.3C387.2 207.3 367.5 212 349.5 221C349.1 221.3 349.4 222 349.9 221.7Z" fill="#59051C"/>
<path d="M414.8 213.2C426.1 241.1 428.5 270.8 422.9 300.4C417.5 329 405.3 355.9 390.3 380.7C390.1 381.1 390.7 381.5 390.9 381.1C406.2 355.7 418.6 328.2 423.9 298.8C429.1 269.7 426.6 240.4 415.4 213C415.3 212.6 414.6 212.8 414.8 213.2Z" fill="#59051C"/>
<path d="M346.3 233C342.2 252.7 343.6 273.3 340.4 293.1C338.8 303.1 334.4 312 330.2 321.2C326 330.4 321.7 339.5 317.2 348.5C317 348.9 317.6 349.3 317.8 348.9C322.2 339.8 326.5 330.7 330.8 321.6C334.8 313 339 304.5 340.7 295.2C344.5 274.8 342.7 253.6 346.9 233.3C347.1 232.7 346.4 232.5 346.3 233Z" fill="#59051C"/>
<path d="M317.2 350.9C327.9 379.8 361 386.4 388.4 383.1C388.9 383 388.9 382.3 388.4 382.3C361.4 385.6 328.5 379.3 317.9 350.7C317.8 350.2 317 350.4 317.2 350.9Z" fill="#59051C"/>
<path d="M248 281.4C247.7 280.5 247.3 279.1 246.9 277.4C245.6 272.4 244.9 269.8 244.6 268.2C244.4 266.8 244 264.4 242.4 262.1C242 261.6 241.7 261.2 241.3 261.2C240.3 261.3 239.6 264 239.2 266.4C238.5 265.2 237.4 263.5 235.8 261.7C234.2 259.9 233.2 258.8 231.5 257.9C230.7 257.5 228.3 256.2 225.3 256.7C222.1 257.2 218.3 259.7 218 263.2C217.9 264.5 218.3 265.5 218.6 266.3C219.9 266.4 221.9 266.7 223.9 267.9C224.8 268.4 226 269.3 228.5 272.5C230.5 275.1 231.1 276.2 233 279C234.6 281.3 236.2 283.7 238.2 285.9C239.8 287.7 242.4 290.2 246.3 292.5C247 291.8 247.9 290.7 248.4 289.1C249.7 285.5 248.4 282.2 248 281.4Z" fill="white"/>
<path d="M349 221.3C346.5 221.9 343.8 224.9 338.5 230.8C333.2 236.7 329.6 241.6 327.4 244.6C315.2 261.2 313.3 264.2 308.2 270.2C303.9 275.3 300.1 279.2 297.8 281.6C292.9 281.9 287.8 282.2 282.6 282.3C270.2 282.5 258.6 282.1 247.9 281.1C247.2 282 246.5 283.2 245.9 284.8C244.7 288.2 245.2 291.1 245.5 292.6C248.9 294.7 253.5 297.5 259.3 300.2C263 302 272.1 306.1 284.6 309.4C294.3 311.9 300.5 312.5 302.3 312.6C309.2 313.2 313.3 312.7 315.8 312.2C317 312 320.2 311.4 324 309.9C333.5 306.3 339.7 300.4 347.2 293.1C349.5 290.8 352.2 288.3 355.4 284.5C360.1 278.9 366.7 271.1 370.6 259.7C372.8 253.1 374.1 249.6 373.5 244.7C372 231.4 358.2 219.2 349 221.3Z" fill="white"/>
<path d="M347.3 221.5C328 238.7 316.6 262.8 298 280.7C297.7 281 298.2 281.6 298.5 281.2C317.1 263.3 328.4 239.3 347.8 222C348.2 221.7 347.7 221.2 347.3 221.5Z" fill="#59051C"/>
<path d="M247.9 281.5C264.5 282.9 281.2 283.1 297.8 282C298.3 282 298.3 281.2 297.8 281.2C281.2 282.3 264.5 282.1 247.9 280.7C247.4 280.7 247.4 281.5 247.9 281.5Z" fill="#59051C"/>
<path d="M247.7 281.1C245.2 284.3 244.2 288.1 245 292.1C245.1 292.6 245.8 292.4 245.7 291.9C245 288.2 245.9 284.6 248.2 281.6C248.5 281.3 248 280.8 247.7 281.1Z" fill="#59051C"/>
<path d="M245.3 292.9C256.6 299.7 268.3 305.3 281 308.8C292.5 312 306.6 315.5 318.4 311.9C328.9 308.7 338.8 301.4 346.9 294C355.8 285.9 363 276.2 368.5 265.5C368.7 265.1 368.1 264.7 367.9 265.1C362.8 275 356.2 284.1 348.1 291.8C339.8 299.7 329.4 307.6 318.3 311.1C306.4 314.8 292.1 311.1 280.5 307.8C268.2 304.2 256.7 298.8 245.8 292.2C245.3 292 244.9 292.7 245.3 292.9Z" fill="#59051C"/>
<path d="M248 280.5C246.8 275.8 245.8 271 244.5 266.3C243.9 264.2 243.1 261 241 259.9C240.8 259.8 240.7 259.8 240.5 260C239.3 261 239.2 262.6 239.1 264C239.1 264.5 239.8 264.5 239.9 264C241.8 261.9 243 262.2 243.3 264.8C243.4 265.2 243.5 265.6 243.7 266C244.2 267.5 244.5 269.1 244.9 270.7C245.7 274.1 246.6 277.4 247.4 280.8C247.4 281.2 248.1 281 248 280.5Z" fill="#59051C"/>
<path d="M244.8 291C237.8 286 234.5 279.5 229.8 272.6C227.2 268.8 223.7 266.1 219 266.4C218.5 266.4 218.5 267.2 219 267.2C227.7 266.6 230.4 276 234.4 281.7C237.1 285.6 240.6 288.9 244.4 291.7C244.8 291.9 245.2 291.3 244.8 291Z" fill="#59051C"/>
<path d="M218.1 263.9C222 264 225.4 265.5 228.1 268.2C228.4 268.5 229 268 228.6 267.7C225.8 264.8 222.1 263.2 218 263.1C217.6 263.2 217.6 263.9 218.1 263.9Z" fill="#59051C"/>
<path d="M221 261.6C224.6 262.1 227.8 263.9 230.1 266.7C230.4 267.1 230.9 266.5 230.6 266.2C228.2 263.2 224.8 261.4 221 260.9C220.5 260.8 220.5 261.6 221 261.6Z" fill="#59051C"/>
<path d="M223.8 258.7C227.2 259.9 230.1 262 232.1 265C232.4 265.4 233 265 232.7 264.6C230.5 261.5 227.5 259.2 223.9 258C223.5 257.8 223.4 258.6 223.8 258.7Z" fill="#59051C"/>
<path d="M227 256.3C230.1 257.4 235.2 259.3 235.8 263C235.9 263.5 236.6 263.3 236.5 262.8C235.9 258.7 230.6 256.7 227.2 255.5C226.7 255.5 226.5 256.2 227 256.3Z" fill="#59051C"/>
<path d="M349.2 186.6C348.4 187.8 347.3 189.8 346.7 192.5C346.4 193.8 345.5 198.4 347.8 203.4C348.6 205.2 350.1 208.2 353.6 210C357 211.7 360.4 211.1 361.5 210.8C362.3 212.3 363.1 213.8 363.9 215.2C365.7 214.8 368.4 214 371.1 212.1C373.1 210.8 376 208.8 377.6 205.3C379.7 200.6 378.2 195.8 376.4 190.1C375.3 186.6 374.8 184.9 373.7 183.7C369.7 179.5 359.8 181.1 349.2 186.6Z" fill="white"/>
<path d="M349.8 193.4C350.187 193.4 350.5 192.908 350.5 192.3C350.5 191.693 350.187 191.2 349.8 191.2C349.413 191.2 349.1 191.693 349.1 192.3C349.1 192.908 349.413 193.4 349.8 193.4Z" fill="#59051C"/>
<path d="M356.2 186.8C355.1 186.9 353.4 186.9 351.5 186.4C350 186 346.6 185.1 344.8 182C344.4 181.3 342.9 178.7 344 176.2C345.2 173.6 348.4 173 349.6 172.8C353 172.2 355.8 173.7 356.7 174.3C357.6 171.6 359 169.8 359.8 168.8C364.7 163.4 371.9 163.8 373.3 163.9C375.1 164 377.1 164.2 378.5 165.6C378.8 165.9 379.5 166.6 380.5 170.5C381.7 175 381.3 175.6 382.2 176.6C383.3 177.8 384.4 177.4 388.8 178.4C391.7 179.1 393.9 179.6 396.2 181C399.3 182.9 401.1 185.3 401.8 186.4C403.9 189.6 404.4 192.7 404.5 193.9C405 198.2 403.6 201.5 402.9 203C400.9 207.5 397.8 210 396.5 211.1C391.6 215 386.5 215.7 384.4 216C382.2 216.3 377 217 371.3 214.6C360.6 210.1 357.4 198.7 356.9 196.4C355.9 192.4 356 189 356.2 186.8Z" fill="#59051C"/>
<path d="M349.4 185.6C345.3 191.7 344.7 200.4 349.1 206.7C352.8 211.9 360.1 212.7 365.5 209.9C365.9 209.7 365.5 209 365.1 209.3C359.4 212.3 352 210.8 348.9 204.9C345.8 198.9 346.3 191.7 350.1 186.2C350.4 185.6 349.7 185.2 349.4 185.6Z" fill="#59051C"/>
<path d="M361.3 210.9C361.6 211.5 362 212.1 362.3 212.7C362.5 213.1 363.2 212.7 362.9 212.3C362.6 211.7 362.2 211.1 361.9 210.5C361.7 210.1 361 210.5 361.3 210.9Z" fill="#59051C"/>
<path d="M349.6 185.2C346.3 183.9 341.9 179.2 344.9 175.6C347.8 172.1 352.6 173 356.2 174.4C356.6 174.6 356.8 173.9 356.4 173.7C353.7 172.6 351.1 171.8 348.3 172.7C346.4 173.3 344.1 174.6 343.4 176.6C341.9 180.6 345.9 184.7 349.3 186C349.9 186.1 350.1 185.4 349.6 185.2Z" fill="#59051C"/>
<path d="M357 185.2C355.3 178.5 356.7 170.6 363 166.7C366 164.9 370.1 163.9 373.6 164.3C378.8 164.8 379.7 169 380.5 173.3C381.1 176.4 382.5 177.7 385.5 178.4C392.3 179.9 398.8 181.1 402.3 188C410.1 203.2 391.8 218.2 377.2 215.2C363.7 212.4 354.6 198.8 356.8 185.5C356.9 185 356.2 184.8 356.1 185.3C354.3 196.4 359.2 206.4 368.7 212.3C379.1 218.7 393 216.6 401 207C407.4 199.3 405.9 187.4 397.7 181.7C395.3 180 392.5 179 389.7 178.4C387.1 177.9 385.4 178.1 383.3 176.1C380.9 173.9 381.5 172.2 380.9 169.3C380.2 165.8 377.8 164.1 374.4 163.7C361.3 162.1 353.4 173.5 356.4 185.5C356.4 185.8 357.2 185.6 357 185.2Z" fill="#59051C"/>
<path d="M348.9 185.8C351.2 186.9 353.6 187.3 356.2 187.1C356.7 187.1 356.7 186.3 356.2 186.3C353.8 186.5 351.5 186.1 349.3 185.1C348.9 185 348.5 185.6 348.9 185.8Z" fill="#59051C"/>
<path d="M198.3 345.07C198.3 415.046 198.3 485.023 198.399 555H189.5V554.674V554.261V553.848V553.435V553.021V552.608V552.195V551.782V551.369V550.956V550.543V550.13V549.717V549.304V548.891V548.478V548.064V547.651V547.238V546.825V546.412V545.999V545.586V545.173V544.76V544.347V543.934V543.521V543.107V542.694V542.281V541.868V541.455V541.042V540.629V540.216V539.803V539.39V538.977V538.563V538.15V537.737V537.324V536.911V536.498V536.085V535.672V535.259V534.846V534.433V534.02V533.606V533.193V532.78V532.367V531.954V531.541V531.128V530.715V530.302V529.889V529.476V529.062V528.649V528.236V527.823V527.41V526.997V526.584V526.171V525.758V525.345V524.932V524.519V524.105V523.692V523.279V522.866V522.453V522.04V521.627V521.214V520.801V520.388V519.975V519.562V519.148V518.735V518.322V517.909V517.496V517.083V516.67V516.257V515.844V515.431V515.018V514.604V514.191V513.778V513.365V512.952V512.539V512.126V511.713V511.3V510.887V510.474V510.061V509.647V509.234V508.821V508.408V507.995V507.582V507.169V506.756V506.343V505.93V505.517V505.104V504.69V504.277V503.864V503.451V503.038V502.625V502.212V501.799V501.386V500.973V500.56V500.146V499.733V499.32V498.907V498.494V498.081V497.668V497.255V496.842V496.429V496.016V495.603V495.189V494.776V494.363V493.95V493.537V493.124V492.711V492.298V491.885V491.472V491.059V490.646V490.232V489.819V489.406V488.993V488.58V488.167V487.754V487.341V486.928V486.515V486.102V485.688V485.275V484.862V484.449V484.036V483.623V483.21V482.797V482.384V481.971V481.558V481.145V480.731V480.318V479.905V479.492V479.079V478.666V478.253V477.84V477.427V477.014V476.601V476.188V475.774V475.361V474.948V474.535V474.122V473.709V473.296V472.883V472.47V472.057V471.644V471.23V470.817V470.404V469.991V469.578V469.165V468.752V468.339V467.926V467.513V467.1V466.687V466.273V465.86V465.447V465.034V464.621V464.208V463.795V463.382V462.969V462.556V462.143V461.729V461.316V460.903V460.49V460.077V459.664V459.251V458.838V458.425V458.012V457.599V457.186V456.772V456.359V455.946V455.533V455.12V454.707V454.294V453.881V453.468V453.055V452.642V452.229V451.815V451.402V450.989V450.576V450.163V449.75V449.337V448.924V448.511V448.098V447.685V447.271V446.858V446.445V446.032V445.619V445.206V444.793V444.38V443.967V443.554V443.141V442.728V442.314V441.901V441.488V441.075V440.662V440.249V439.836V439.423V439.01V438.597V438.184V437.771V437.357V436.944V436.531V436.118V435.705V435.292V434.879V434.466V434.053V433.64V433.227V432.813V432.4V431.987V431.574V431.161V430.748V430.335V429.922V429.509V429.096V428.683V428.27V427.856V427.443V427.03V426.617V426.204V425.791V425.378V424.965V424.552V424.139V423.726V423.312V422.899V422.486V422.073V421.66V421.247V420.834V420.421V420.008V419.595V419.182V418.769V418.355V417.942V417.529V417.116V416.703V416.29V415.877V415.464V415.051V414.638V414.225V413.812V413.398V412.985V412.572V412.159V411.746V411.333V410.92V410.507V410.094V409.681V409.268V408.854V408.441V408.028V407.615V407.202V406.789V406.376V405.963V405.55V405.137V404.724V404.311V403.897V403.484V403.071V402.658V402.245V401.832V401.419V401.006V400.593V400.18V399.767V399.354V398.94V398.527V398.114V397.701V397.288V396.875V396.462V396.049V395.636V395.223V394.81V394.396V393.983V393.57V393.157V392.744V392.331V391.918V391.505V391.092V390.679V390.266V389.853V389.439V389.026V388.613V388.2V387.787V387.374V386.961V386.548V386.135V385.722V385.309V384.896V384.482V384.069V383.656V383.243V382.83V382.417V382.004V381.591V381.178V380.765V380.352V379.938V379.525V379.112V378.699V378.286V377.873V377.46V377.047V376.634V376.221V375.808V375.395V374.981V374.568V374.155V373.742V373.329V372.916V372.503V372.09V371.677V371.264V370.851V370.438V370.024V369.611V369.198V368.785V368.372V367.959V367.546V367.133V366.72V366.307V365.894V365.48V365.067V364.654V364.241V363.828V363.415V363.002V362.589V362.176V361.763V361.35V360.937V360.523V360.11V359.697V359.284V358.871V358.458V358.045V357.632V357.219V356.806V356.393V355.979V355.566V355.153V354.74V354.327V353.914V353.501V353.088V352.675V352.262V351.849V351.436V351.022V350.609V350.196V349.783V349.37V348.957V348.544V348.131V347.718V347.305V346.892V346.479V346.065V345.652V345.239V344.826V344.531C192.462 344.711 195.419 344.89 198.3 345.07Z" fill="#59051C" stroke="#A60933"/>
<path d="M358.4 258.4C354.2 310.1 348.4 403 347.2 422.7C347 425.2 347.3 427.7 348 430.2C350 437.6 354.6 453.2 356.4 451.7C358.3 450.1 429.1 420.5 456.9 408.9C463.7 406.1 468.5 399.5 469.5 391.8L489.9 225.9C491 216.8 486.6 208 478.9 204C475 201.9 470.5 201.3 466.2 202.2L393.4 217.2C374.3 221 360 237.9 358.4 258.4Z" fill="#D90E32" stroke="#A60933" stroke-miterlimit="10"/>
</svg>
