<svg width="121" height="18" viewBox="0 0 121 18" fill="none" xmlns="http://www.w3.org/2000/svg">
<path d="M0.632 17V0.199999H6.368C8.336 0.199999 9.952 0.551999 11.216 1.256C12.496 1.944 13.44 2.92 14.048 4.184C14.672 5.432 14.984 6.904 14.984 8.6C14.984 10.296 14.672 11.776 14.048 13.04C13.44 14.288 12.496 15.264 11.216 15.968C9.952 16.656 8.336 17 6.368 17H0.632ZM3.704 14.36H6.224C7.632 14.36 8.744 14.136 9.56 13.688C10.376 13.224 10.96 12.568 11.312 11.72C11.664 10.856 11.84 9.816 11.84 8.6C11.84 7.4 11.664 6.368 11.312 5.504C10.96 4.64 10.376 3.976 9.56 3.512C8.744 3.048 7.632 2.816 6.224 2.816H3.704V14.36ZM23.4065 17.288C22.2065 17.288 21.1425 17.032 20.2145 16.52C19.2865 16.008 18.5585 15.288 18.0305 14.36C17.5025 13.432 17.2385 12.36 17.2385 11.144C17.2385 9.912 17.4945 8.816 18.0065 7.856C18.5345 6.896 19.2545 6.152 20.1665 5.624C21.0945 5.08 22.1825 4.808 23.4305 4.808C24.5985 4.808 25.6305 5.064 26.5265 5.576C27.4225 6.088 28.1185 6.792 28.6145 7.688C29.1265 8.568 29.3825 9.552 29.3825 10.64C29.3825 10.816 29.3745 11 29.3585 11.192C29.3585 11.384 29.3505 11.584 29.3345 11.792H20.2865C20.3505 12.72 20.6705 13.448 21.2465 13.976C21.8385 14.504 22.5505 14.768 23.3825 14.768C24.0065 14.768 24.5265 14.632 24.9425 14.36C25.3745 14.072 25.6945 13.704 25.9025 13.256H29.0225C28.7985 14.008 28.4225 14.696 27.8945 15.32C27.3825 15.928 26.7425 16.408 25.9745 16.76C25.2225 17.112 24.3665 17.288 23.4065 17.288ZM23.4305 7.304C22.6785 7.304 22.0145 7.52 21.4385 7.952C20.8625 8.368 20.4945 9.008 20.3345 9.872H26.2625C26.2145 9.088 25.9265 8.464 25.3985 8C24.8705 7.536 24.2145 7.304 23.4305 7.304ZM31.9663 17V5.096H34.6783L34.9423 6.704C35.3263 6.128 35.8303 5.672 36.4543 5.336C37.0943 4.984 37.8303 4.808 38.6623 4.808C40.5023 4.808 41.8063 5.52 42.5743 6.944C43.0063 6.288 43.5823 5.768 44.3023 5.384C45.0383 5 45.8383 4.808 46.7023 4.808C48.2543 4.808 49.4463 5.272 50.2783 6.2C51.1103 7.128 51.5263 8.488 51.5263 10.28V17H48.4543V10.568C48.4543 9.544 48.2543 8.76 47.8543 8.216C47.4703 7.672 46.8703 7.4 46.0543 7.4C45.2223 7.4 44.5503 7.704 44.0383 8.312C43.5423 8.92 43.2943 9.768 43.2943 10.856V17H40.2223V10.568C40.2223 9.544 40.0223 8.76 39.6223 8.216C39.2223 7.672 38.6063 7.4 37.7743 7.4C36.9583 7.4 36.2943 7.704 35.7823 8.312C35.2863 8.92 35.0383 9.768 35.0383 10.856V17H31.9663ZM60.1548 17.288C59.0028 17.288 57.9628 17.024 57.0348 16.496C56.1228 15.968 55.3948 15.24 54.8508 14.312C54.3228 13.368 54.0588 12.28 54.0588 11.048C54.0588 9.816 54.3308 8.736 54.8748 7.808C55.4188 6.864 56.1468 6.128 57.0588 5.6C57.9868 5.072 59.0268 4.808 60.1788 4.808C61.3148 4.808 62.3388 5.072 63.2508 5.6C64.1788 6.128 64.9068 6.864 65.4348 7.808C65.9788 8.736 66.2508 9.816 66.2508 11.048C66.2508 12.28 65.9788 13.368 65.4348 14.312C64.9068 15.24 64.1788 15.968 63.2508 16.496C62.3228 17.024 61.2908 17.288 60.1548 17.288ZM60.1548 14.624C60.9548 14.624 61.6508 14.328 62.2428 13.736C62.8348 13.128 63.1308 12.232 63.1308 11.048C63.1308 9.864 62.8348 8.976 62.2428 8.384C61.6508 7.776 60.9628 7.472 60.1788 7.472C59.3628 7.472 58.6588 7.776 58.0668 8.384C57.4908 8.976 57.2028 9.864 57.2028 11.048C57.2028 12.232 57.4908 13.128 58.0668 13.736C58.6588 14.328 59.3548 14.624 60.1548 14.624ZM78.7003 17V2.672H73.8043V0.199999H86.6923V2.672H81.7723V17H78.7003ZM92.5237 17.288C91.3237 17.288 90.2597 17.032 89.3317 16.52C88.4037 16.008 87.6757 15.288 87.1477 14.36C86.6197 13.432 86.3557 12.36 86.3557 11.144C86.3557 9.912 86.6117 8.816 87.1237 7.856C87.6517 6.896 88.3717 6.152 89.2837 5.624C90.2117 5.08 91.2997 4.808 92.5477 4.808C93.7157 4.808 94.7477 5.064 95.6437 5.576C96.5397 6.088 97.2357 6.792 97.7317 7.688C98.2437 8.568 98.4997 9.552 98.4997 10.64C98.4997 10.816 98.4917 11 98.4757 11.192C98.4757 11.384 98.4677 11.584 98.4517 11.792H89.4037C89.4677 12.72 89.7877 13.448 90.3637 13.976C90.9557 14.504 91.6677 14.768 92.4997 14.768C93.1237 14.768 93.6437 14.632 94.0597 14.36C94.4917 14.072 94.8117 13.704 95.0197 13.256H98.1397C97.9157 14.008 97.5397 14.696 97.0117 15.32C96.4997 15.928 95.8597 16.408 95.0917 16.76C94.3397 17.112 93.4837 17.288 92.5237 17.288ZM92.5477 7.304C91.7957 7.304 91.1317 7.52 90.5557 7.952C89.9797 8.368 89.6117 9.008 89.4517 9.872H95.3797C95.3317 9.088 95.0437 8.464 94.5157 8C93.9877 7.536 93.3317 7.304 92.5477 7.304ZM106.003 17.288C104.947 17.288 104.019 17.12 103.219 16.784C102.419 16.432 101.779 15.952 101.299 15.344C100.819 14.736 100.531 14.032 100.435 13.232H103.531C103.627 13.696 103.883 14.096 104.299 14.432C104.731 14.752 105.283 14.912 105.955 14.912C106.627 14.912 107.115 14.776 107.419 14.504C107.739 14.232 107.899 13.92 107.899 13.568C107.899 13.056 107.675 12.712 107.227 12.536C106.779 12.344 106.155 12.16 105.355 11.984C104.843 11.872 104.323 11.736 103.795 11.576C103.267 11.416 102.779 11.216 102.331 10.976C101.899 10.72 101.547 10.4 101.275 10.016C101.003 9.616 100.867 9.128 100.867 8.552C100.867 7.496 101.283 6.608 102.115 5.888C102.963 5.168 104.147 4.808 105.667 4.808C107.075 4.808 108.195 5.136 109.027 5.792C109.875 6.448 110.379 7.352 110.539 8.504H107.635C107.459 7.624 106.795 7.184 105.643 7.184C105.067 7.184 104.619 7.296 104.299 7.52C103.995 7.744 103.843 8.024 103.843 8.36C103.843 8.712 104.075 8.992 104.539 9.2C105.003 9.408 105.619 9.6 106.387 9.776C107.219 9.968 107.979 10.184 108.667 10.424C109.371 10.648 109.931 10.992 110.347 11.456C110.763 11.904 110.971 12.552 110.971 13.4C110.987 14.136 110.795 14.8 110.395 15.392C109.995 15.984 109.419 16.448 108.667 16.784C107.915 17.12 107.027 17.288 106.003 17.288ZM118.622 17C117.374 17 116.374 16.696 115.622 16.088C114.87 15.48 114.494 14.4 114.494 12.848V7.664H112.454V5.096H114.494L114.854 1.904H117.566V5.096H120.782V7.664H117.566V12.872C117.566 13.448 117.686 13.848 117.926 14.072C118.182 14.28 118.614 14.384 119.222 14.384H120.71V17H118.622Z" fill="white"/>
</svg>
